<svg width="40" height="40" viewBox="0 0 40 40" fill="none" xmlns="http://www.w3.org/2000/svg">
<path d="M31.2502 11.875H20.0001C19.5686 11.875 19.2188 12.2248 19.2188 12.6562C19.2188 13.0877 19.5686 13.4375 20.0001 13.4375H31.2502C31.6817 13.4375 32.0315 13.0877 32.0315 12.6562C32.0315 12.2248 31.6817 11.875 31.2502 11.875Z" fill="#7772F1"/>
<path d="M28.5172 15.8539C28.3719 15.7086 28.1703 15.625 27.9648 15.625C27.7594 15.625 27.5578 15.7086 27.4125 15.8539C27.2672 15.9992 27.1836 16.2008 27.1836 16.4062C27.1836 16.6117 27.2672 16.8133 27.4125 16.9586C27.5578 17.1039 27.7594 17.1875 27.9648 17.1875C28.1703 17.1875 28.3719 17.1039 28.5172 16.9586C28.6625 16.8133 28.7461 16.6117 28.7461 16.4062C28.7461 16.2008 28.6625 15.9992 28.5172 15.8539Z" fill="#7772F1"/>
<path d="M20.5514 3.58828C20.4061 3.44297 20.2045 3.35938 19.9991 3.35938C19.7936 3.35938 19.5921 3.44297 19.4467 3.58828C19.3014 3.73359 19.2178 3.93516 19.2178 4.14062C19.2178 4.34609 19.3014 4.54765 19.4467 4.69297C19.5921 4.83828 19.7936 4.92187 19.9991 4.92187C20.2045 4.92187 20.4061 4.83828 20.5514 4.69297C20.6967 4.54765 20.7803 4.34609 20.7803 4.14062C20.7803 3.93516 20.6967 3.73359 20.5514 3.58828Z" fill="#7772F1"/>
<path d="M24.678 15.625H20.0001C19.5686 15.625 19.2188 15.9748 19.2188 16.4062C19.2188 16.8377 19.5686 17.1875 20.0001 17.1875H24.678C25.1094 17.1875 25.4592 16.8377 25.4592 16.4062C25.4592 15.9748 25.1094 15.625 24.678 15.625Z" fill="#7772F1"/>
<path d="M31.2502 20.3125H20.0001C19.5686 20.3125 19.2188 20.6623 19.2188 21.0937C19.2188 21.5252 19.5686 21.875 20.0001 21.875H31.2502C31.6817 21.875 32.0315 21.5252 32.0315 21.0937C32.0315 20.6623 31.6817 20.3125 31.2502 20.3125Z" fill="#7772F1"/>
<path d="M28.5172 24.2914C28.3719 24.1461 28.1703 24.0625 27.9648 24.0625C27.7594 24.0625 27.5578 24.1461 27.4125 24.2914C27.2672 24.4367 27.1836 24.6383 27.1836 24.8437C27.1836 25.0492 27.2672 25.2508 27.4125 25.3961C27.5578 25.5414 27.7594 25.625 27.9648 25.625C28.1703 25.625 28.3719 25.5414 28.5172 25.3961C28.6625 25.2508 28.7461 25.0492 28.7461 24.8437C28.7461 24.6383 28.6625 24.4367 28.5172 24.2914Z" fill="#7772F1"/>
<path d="M24.678 24.0625H20.0001C19.5686 24.0625 19.2188 24.4123 19.2188 24.8437C19.2188 25.2752 19.5686 25.625 20.0001 25.625H24.678C25.1094 25.625 25.4592 25.2752 25.4592 24.8437C25.4592 24.4123 25.1094 24.0625 24.678 24.0625Z" fill="#7772F1"/>
<path d="M31.2502 28.75H20.0001C19.5686 28.75 19.2188 29.0998 19.2188 29.5312C19.2188 29.9627 19.5686 30.3125 20.0001 30.3125H31.2502C31.6817 30.3125 32.0315 29.9627 32.0315 29.5312C32.0315 29.0998 31.6817 28.75 31.2502 28.75Z" fill="#7772F1"/>
<path d="M28.5172 32.7289C28.3719 32.5836 28.1703 32.5 27.9648 32.5C27.7594 32.5 27.5578 32.5836 27.4125 32.7289C27.2672 32.8742 27.1836 33.0758 27.1836 33.2812C27.1836 33.4867 27.2672 33.6883 27.4125 33.8336C27.5578 33.9789 27.7594 34.0625 27.9648 34.0625C28.1703 34.0625 28.3719 33.9789 28.5172 33.8336C28.6625 33.6883 28.7461 33.4867 28.7461 33.2812C28.7461 33.0758 28.6625 32.8742 28.5172 32.7289Z" fill="#7772F1"/>
<path d="M24.678 32.5H20.0001C19.5686 32.5 19.2188 32.8498 19.2188 33.2812C19.2188 33.7127 19.5686 34.0625 20.0001 34.0625H24.678C25.1094 34.0625 25.4592 33.7127 25.4592 33.2812C25.4592 32.8498 25.1094 32.5 24.678 32.5Z" fill="#7772F1"/>
<path d="M32.7533 3.04695H26.7862C25.9237 2.225 24.7576 1.71875 23.4749 1.71875H22.7905C22.2673 0.682967 21.1924 0 20 0C18.8076 0 17.7327 0.682967 17.2095 1.71875H16.5234C15.2407 1.71875 14.0748 2.225 13.2122 3.04695H7.24682C5.14643 3.04695 3.43761 4.75577 3.43761 6.85616V36.1908C3.43761 38.2912 5.14643 40 7.24682 40H32.7533C34.8536 40 36.5625 38.2912 36.5625 36.1908V6.85616C36.5625 4.75577 34.8537 3.04695 32.7533 3.04695ZM16.5235 3.28124H17.7412C18.0926 3.28124 18.4007 3.04663 18.4942 2.70796C18.6805 2.03351 19.2998 1.5625 20.0001 1.5625C20.7004 1.5625 21.3196 2.03351 21.5059 2.70796C21.5994 3.04663 21.9076 3.28124 22.2589 3.28124H23.4749C25.1706 3.28124 26.5664 4.58984 26.7057 6.25007H13.2927C13.432 4.58984 14.8279 3.28124 16.5235 3.28124ZM35 36.1909C35 37.4297 33.9922 38.4376 32.7533 38.4376H7.24682C6.00799 38.4376 5.0001 37.4297 5.0001 36.1909V6.85616C5.0001 5.61733 6.00799 4.60944 7.24682 4.60944H12.1177C11.8617 5.19632 11.7188 5.84335 11.7188 6.5235V7.03131C11.7188 7.4628 12.0686 7.81256 12.5001 7.81256H27.4984C27.9299 7.81256 28.2797 7.4628 28.2797 7.03131V6.5235C28.2797 5.84343 28.1368 5.19632 27.8808 4.60944H32.7533C33.9922 4.60944 35 5.61733 35 6.85616V36.1909Z" fill="#7772F1"/>
<path d="M15.0311 11.6858C14.7261 11.3808 14.2314 11.3808 13.9263 11.6858L10.5855 15.0266L9.55638 13.9974C9.25131 13.6924 8.75662 13.6924 8.45146 13.9974C8.14639 14.3025 8.14639 14.7972 8.45146 15.1023L10.0331 16.684C10.1857 16.8365 10.3856 16.9128 10.5855 16.9128C10.7854 16.9128 10.9854 16.8365 11.1379 16.684L15.0311 12.7908C15.3362 12.4857 15.3362 11.991 15.0311 11.6858Z" fill="#7772F1"/>
<path d="M13.1251 28.75H9.37509C8.94361 28.75 8.59384 29.0998 8.59384 29.5312V33.2812C8.59384 33.7127 8.94361 34.0625 9.37509 34.0625H13.1251C13.5566 34.0625 13.9063 33.7127 13.9063 33.2812V29.5312C13.9063 29.0998 13.5566 28.75 13.1251 28.75ZM12.3438 32.5H10.1563V30.3125H12.3438V32.5Z" fill="#7772F1"/>
<path d="M13.1251 20.3125H9.37509C8.94361 20.3125 8.59384 20.6623 8.59384 21.0937V24.8437C8.59384 25.2752 8.94361 25.625 9.37509 25.625H13.1251C13.5566 25.625 13.9063 25.2752 13.9063 24.8437V21.0937C13.9063 20.6623 13.5566 20.3125 13.1251 20.3125ZM12.3438 24.0625H10.1563V21.875H12.3438V24.0625Z" fill="#7772F1"/>
</svg>
