<svg width="40" height="34" viewBox="0 0 40 34" fill="none" xmlns="http://www.w3.org/2000/svg">
<path d="M35.7812 11.6773V3.72522C35.7812 2.13131 34.4845 0.834595 32.8906 0.834595C32.2216 0.834595 31.6053 1.06374 31.1149 1.44678L22.7551 4.57811C22.351 4.72944 22.1462 5.17967 22.2975 5.58374C22.415 5.89756 22.7128 6.09116 23.0292 6.09116C23.1203 6.09116 23.2129 6.07514 23.3031 6.04123L30.0073 3.52999C30.003 3.59452 29.9999 3.65944 29.9999 3.72506V12.7876C29.9999 13.219 30.3497 13.5688 30.7812 13.5688C31.2127 13.5688 31.5624 13.219 31.5624 12.7876V3.72506C31.5624 2.99272 32.1582 2.39694 32.8905 2.39694C33.6229 2.39694 34.2187 2.99272 34.2187 3.72506V29.5063C34.2187 30.2387 33.6229 30.8344 32.8905 30.8344C32.1582 30.8344 31.5624 30.2387 31.5624 29.5063V20.0532C31.5624 19.6218 31.2127 19.2719 30.7812 19.2719C30.3497 19.2719 29.9999 19.6218 29.9999 20.0532V29.5063C29.9999 29.5719 30.0029 29.6369 30.0073 29.7014L10.3125 22.3243V10.9075L18.2425 7.93709C18.6466 7.78577 18.8514 7.33553 18.7001 6.93147C18.5487 6.52741 18.0984 6.32217 17.6944 6.47397L9.38977 9.58467H4.60938C2.06773 9.58467 0 11.6524 0 14.194V19.0378C0 21.5295 1.98766 23.5644 4.46055 23.6434L7.90297 32.6627C8.01852 32.9655 8.30891 33.1655 8.63289 33.1655H13.1641C13.4212 33.1655 13.6618 33.039 13.8076 32.8273C13.9534 32.6156 13.9857 32.3458 13.8941 32.1057L10.8786 24.2049L31.115 31.7851C31.6054 32.1681 32.2216 32.3972 32.8907 32.3972C34.4846 32.3972 35.7813 31.1005 35.7813 29.5066V21.5544C38.1684 21.1781 40 19.1071 40 16.6158C40 14.1246 38.1684 12.0535 35.7812 11.6773ZM4.60938 22.0846C2.9293 22.0846 1.5625 20.7178 1.5625 19.0377V14.194C1.5625 12.5139 2.9293 11.1471 4.60938 11.1471H8.75V22.0846H5H4.60938ZM12.0297 31.6028H9.17086V31.6029L6.13445 23.6471H8.99328L12.0297 31.6028ZM35.7812 19.9626V13.2689C37.3014 13.6237 38.4375 14.9891 38.4375 16.6158C38.4375 18.2424 37.3014 19.6079 35.7812 19.9626Z" fill="#7772F1"/>
</svg>
