<svg width="16" height="16" viewBox="0 0 16 16" fill="none" xmlns="http://www.w3.org/2000/svg">
<path fill-rule="evenodd" clip-rule="evenodd" d="M15.1667 11.9998V4.6665C15.1667 3.56193 14.2712 2.6665 13.1667 2.6665L2.83334 2.66651C1.72877 2.66652 0.833344 3.56195 0.833344 4.66651V11.9998C0.833344 13.1044 1.72877 13.9998 2.83334 13.9998L13.1667 13.9998C14.2712 13.9998 15.1667 13.1044 15.1667 11.9998ZM13.8333 6.17281V11.9998C13.8333 12.368 13.5349 12.6665 13.1667 12.6665L2.83334 12.6665C2.46515 12.6665 2.16668 12.368 2.16668 11.9998L2.16668 6.17272L6.87545 9.37469C7.55417 9.83622 8.44598 9.83622 9.12469 9.37469L13.8333 6.17281ZM13.8258 4.56558C13.7771 4.24528 13.5006 3.99984 13.1667 3.99984L2.83334 3.99985C2.49949 3.99985 2.22296 4.24524 2.17428 4.5655L7.6252 8.27212C7.85144 8.42597 8.14871 8.42597 8.37495 8.27212L13.8258 4.56558Z" fill="white"/>
</svg>
