<svg width="23" height="22" viewBox="0 0 23 22" fill="none" xmlns="http://www.w3.org/2000/svg">
<path d="M15.2546 6.61181C15.2546 6.37392 15.3491 6.14577 15.5174 5.97756C15.6856 5.80935 15.9137 5.71484 16.1516 5.71484C16.3895 5.71484 16.6176 5.80935 16.7859 5.97756C16.9541 6.14577 17.0486 6.37392 17.0486 6.61181C17.0486 6.8497 16.9541 7.07785 16.7859 7.24607C16.6176 7.41428 16.3895 7.50878 16.1516 7.50878C15.9137 7.50878 15.6856 7.41428 15.5174 7.24607C15.3491 7.07785 15.2546 6.8497 15.2546 6.61181Z" fill="#CEAAD0"/>
<path fill-rule="evenodd" clip-rule="evenodd" d="M11.6669 6.83594C10.5369 6.83594 9.45317 7.28482 8.65415 8.08384C7.85513 8.88286 7.40625 9.96656 7.40625 11.0965C7.40625 12.2265 7.85513 13.3102 8.65415 14.1092C9.45317 14.9083 10.5369 15.3572 11.6669 15.3572C12.7968 15.3572 13.8805 14.9083 14.6796 14.1092C15.4786 13.3102 15.9275 12.2265 15.9275 11.0965C15.9275 9.96656 15.4786 8.88286 14.6796 8.08384C13.8805 7.28482 12.7968 6.83594 11.6669 6.83594ZM8.7517 11.0965C8.7517 10.3234 9.05884 9.58192 9.60553 9.03522C10.1522 8.48852 10.8937 8.18139 11.6669 8.18139C12.44 8.18139 13.1815 8.48852 13.7282 9.03522C14.2749 9.58192 14.582 10.3234 14.582 11.0965C14.582 11.8697 14.2749 12.6112 13.7282 13.1579C13.1815 13.7046 12.44 14.0117 11.6669 14.0117C10.8937 14.0117 10.1522 13.7046 9.60553 13.1579C9.05884 12.6112 8.7517 11.8697 8.7517 11.0965Z" fill="#CEAAD0"/>
<path fill-rule="evenodd" clip-rule="evenodd" d="M16.3829 2.8739C13.2483 2.52641 10.085 2.52641 6.95039 2.8739C5.14568 3.07572 3.68811 4.49741 3.47642 6.31109C3.10454 9.49047 3.10454 12.7024 3.47642 15.8818C3.68811 17.6954 5.14479 19.1171 6.95039 19.3189C10.085 19.6661 13.2483 19.6661 16.3829 19.3189C18.1876 19.1171 19.6452 17.6954 19.8569 15.8818C20.2288 12.7024 20.2288 9.49047 19.8569 6.31109C19.6452 4.49741 18.1885 3.07572 16.3829 2.8739ZM7.09928 4.21038C10.1349 3.87391 13.1984 3.87391 16.234 4.21038C17.427 4.34493 18.3823 5.28585 18.5213 6.46806C18.8809 9.54315 18.8809 12.6497 18.5213 15.7248C18.4494 16.3034 18.1845 16.8408 17.7695 17.2503C17.3545 17.6598 16.8135 17.9174 16.234 17.9816C13.1984 18.3181 10.1349 18.3181 7.09928 17.9816C6.51979 17.9174 5.97884 17.6598 5.56381 17.2503C5.14878 16.8408 4.88392 16.3034 4.81201 15.7248C4.45237 12.6497 4.45237 9.54315 4.81201 6.46806C4.88392 5.88947 5.14878 5.35203 5.56381 4.94254C5.97884 4.53304 6.51979 4.27452 7.09928 4.21038Z" fill="#CEAAD0"/>
</svg>
