<svg width="16" height="15" viewBox="0 0 16 15" fill="none" xmlns="http://www.w3.org/2000/svg">
<path d="M8.66666 3.83317C8.66666 3.46498 8.36819 3.1665 8 3.1665C7.63181 3.1665 7.33333 3.46498 7.33333 3.83317V7.49984C7.33333 7.67665 7.40357 7.84622 7.52859 7.97124L9.52859 9.97124C9.78894 10.2316 10.2111 10.2316 10.4714 9.97124C10.7318 9.71089 10.7318 9.28878 10.4714 9.02843L8.66666 7.22369V3.83317Z" fill="#787A80"/>
<path fill-rule="evenodd" clip-rule="evenodd" d="M8 0.166504C3.94991 0.166504 0.666664 3.44975 0.666664 7.49984C0.666664 11.5499 3.94991 14.8332 8 14.8332C12.0501 14.8332 15.3333 11.5499 15.3333 7.49984C15.3333 3.44975 12.0501 0.166504 8 0.166504ZM2 7.49984C2 4.18613 4.68629 1.49984 8 1.49984C11.3137 1.49984 14 4.18613 14 7.49984C14 10.8135 11.3137 13.4998 8 13.4998C4.68629 13.4998 2 10.8135 2 7.49984Z" fill="#787A80"/>
</svg>
