<svg width="16" height="16" viewBox="0 0 16 16" fill="none" xmlns="http://www.w3.org/2000/svg">
<path fill-rule="evenodd" clip-rule="evenodd" d="M7.99957 13.272C4.93353 11.5257 3.2235 9.79004 2.39658 8.2841C1.55024 6.74277 1.62409 5.44459 2.09372 4.52322C3.05904 2.6294 5.8041 2.02382 7.47662 4.13914L7.99953 4.8005L8.52249 4.13917C10.1953 2.02376 12.9405 2.62945 13.9058 4.52322C14.3754 5.44457 14.4493 6.74275 13.6029 8.28408C12.7759 9.79003 11.0658 11.5257 7.99957 13.272ZM7.9996 2.73775C5.64679 0.502007 2.17587 1.42603 0.905808 3.91772C0.20878 5.28519 0.199259 7.05261 1.22785 8.92585C2.24732 10.7825 4.27992 12.7422 7.67707 14.6199L7.99956 14.7981L8.32205 14.6199C11.7193 12.7422 13.752 10.7825 14.7716 8.92586C15.8002 7.05263 15.7908 5.28521 15.0937 3.91772C13.8236 1.42599 10.3526 0.502041 7.9996 2.73775Z" fill="#7772F1"/>
</svg>
