<svg width="24" height="24" viewBox="0 0 24 24" fill="none" xmlns="http://www.w3.org/2000/svg">
<circle cx="12" cy="12" r="11.5" stroke="#CEAAD0"/>
<g clip-path="url(#clip0_12_40)">
<path d="M9.19995 13.0338H9.49995C9.49992 12.9754 9.48288 12.9184 9.45091 12.8696C9.41894 12.8208 9.37343 12.7823 9.31995 12.759L9.19995 13.0338ZM14.8 13.0338L14.68 12.759C14.6265 12.7823 14.581 12.8208 14.549 12.8696C14.517 12.9184 14.5 12.9754 14.5 13.0338H14.8ZM13.5 10.0002C13.5 10.0798 13.5316 10.1561 13.5878 10.2123C13.6441 10.2686 13.7204 10.3002 13.8 10.3002C13.8795 10.3002 13.9558 10.2686 14.0121 10.2123C14.0683 10.1561 14.1 10.0798 14.1 10.0002H13.5ZM9.89995 10.0002C9.89995 10.0798 9.93156 10.1561 9.98782 10.2123C10.0441 10.2686 10.1204 10.3002 10.2 10.3002C10.2795 10.3002 10.3558 10.2686 10.4121 10.2123C10.4683 10.1561 10.5 10.0798 10.5 10.0002H9.89995ZM9.99995 8.9002C9.38995 8.9002 8.80494 9.14252 8.37361 9.57385C7.94227 10.0052 7.69995 10.5902 7.69995 11.2002H8.29995C8.29995 10.7493 8.47906 10.3169 8.79787 9.99811C9.11668 9.6793 9.54908 9.5002 9.99995 9.5002V8.9002ZM14 9.5002C14.4508 9.5002 14.8832 9.6793 15.202 9.99811C15.5208 10.3169 15.7 10.7493 15.7 11.2002H16.3C16.3 10.5902 16.0576 10.0052 15.6263 9.57385C15.195 9.14252 14.6099 8.9002 14 8.9002V9.5002ZM13.2 15.7002H10.8V16.3002H13.2V15.7002ZM10.8 15.7002C10.4144 15.7002 10.1552 15.6994 9.96195 15.6734C9.77755 15.6486 9.69835 15.6058 9.64635 15.5534L9.22235 15.9782C9.40435 16.1602 9.63115 16.2342 9.88235 16.2682C10.1248 16.301 10.4312 16.3002 10.8 16.3002V15.7002ZM8.89995 14.4002C8.89995 14.769 8.89915 15.0754 8.93195 15.3178C8.96555 15.569 9.03995 15.7958 9.22195 15.9778L9.64635 15.5538C9.59435 15.5018 9.55155 15.4226 9.52635 15.2378C9.50075 15.045 9.49995 14.7858 9.49995 14.4002H8.89995ZM14.5 14.4002C14.5 14.7858 14.4992 15.045 14.4732 15.2382C14.4484 15.4226 14.4056 15.5018 14.3532 15.5538L14.778 15.9778C14.96 15.7958 15.034 15.569 15.068 15.3178C15.1008 15.0754 15.1 14.769 15.1 14.4002H14.5ZM13.2 16.3002C13.5688 16.3002 13.8752 16.301 14.1176 16.2682C14.3688 16.2346 14.596 16.1602 14.778 15.9778L14.3536 15.5538C14.3016 15.6058 14.2224 15.6486 14.0376 15.6738C13.8448 15.6994 13.5856 15.7002 13.2 15.7002V16.3002ZM9.99995 9.5002C10.0856 9.5002 10.1692 9.5066 10.2512 9.5186L10.3388 8.925C10.2266 8.90845 10.1133 8.90016 9.99995 8.9002V9.5002ZM12 7.7002C11.5611 7.7002 11.1332 7.83765 10.7764 8.09327C10.4196 8.34888 10.1519 8.70982 10.0108 9.1254L10.5788 9.3182C10.6796 9.02132 10.8709 8.76349 11.1258 8.58091C11.3807 8.39832 11.6864 8.30016 12 8.3002V7.7002ZM10.0108 9.1254C9.93716 9.34276 9.89973 9.57072 9.89995 9.8002H10.5C10.5 9.631 10.528 9.469 10.5792 9.3182L10.0108 9.1254ZM14 8.9002C13.8852 8.9002 13.772 8.9086 13.6612 8.925L13.7492 9.5186C13.8322 9.50634 13.916 9.50019 14 9.5002V8.9002ZM12 8.3002C12.3134 8.30024 12.619 8.39845 12.8738 8.58102C13.1287 8.7636 13.3199 9.02138 13.4208 9.3182L13.9888 9.1254C13.8476 8.70988 13.5799 8.349 13.2232 8.09339C12.8666 7.83778 12.4388 7.70028 12 7.7002V8.3002ZM13.4208 9.3182C13.472 9.469 13.5 9.631 13.5 9.8002H14.1C14.1 9.5646 14.0608 9.3378 13.9888 9.1254L13.4212 9.3182H13.4208ZM9.49995 14.4002V13.0338H8.89995V14.4002H9.49995ZM9.31995 12.759C9.0167 12.6266 8.75867 12.4086 8.5775 12.1317C8.39632 11.8548 8.29986 11.5311 8.29995 11.2002H7.69995C7.69992 11.6478 7.83047 12.0857 8.07558 12.4602C8.3207 12.8347 8.66975 13.1295 9.07995 13.3086L9.31995 12.759ZM14.5 13.0338V14.4002H15.1V13.0338H14.5ZM15.7 11.2002C15.7 11.5311 15.6036 11.8548 15.4224 12.1317C15.2412 12.4086 14.9832 12.6266 14.68 12.759L14.92 13.3086C15.3302 13.1295 15.6792 12.8347 15.9243 12.4602C16.1694 12.0857 16.3 11.6478 16.3 11.2002H15.7ZM13.5 9.8002V10.0002H14.1V9.8002H13.5ZM9.89995 9.8002V10.0002H10.5V9.8002H9.89995Z" fill="#312C27"/>
<path opacity="0.5" d="M12 11.198L11.7924 11.4148C11.8483 11.4684 11.9226 11.4983 12 11.4983C12.0774 11.4983 12.1517 11.4684 12.2076 11.4148L12 11.198ZM11.7944 12.4256C11.6276 12.3032 11.4432 12.1496 11.3036 11.9888C11.1564 11.8184 11.1 11.686 11.1 11.6H10.5C10.5 11.908 10.6764 12.1804 10.85 12.3812C11.0312 12.5908 11.2556 12.7744 11.4396 12.9092L11.7944 12.4256ZM11.1 11.6C11.1 11.3696 11.2052 11.2696 11.2968 11.2372C11.3968 11.202 11.5824 11.2132 11.7928 11.4148L12.2076 10.9812C11.8776 10.6652 11.4632 10.5432 11.0984 10.6712C10.7248 10.802 10.5 11.1612 10.5 11.6H11.1ZM12.56 12.9096C12.744 12.7744 12.9688 12.5908 13.15 12.3812C13.3236 12.1804 13.5 11.908 13.5 11.6H12.9C12.9 11.686 12.8436 11.8184 12.696 11.9888C12.5568 12.15 12.3724 12.3032 12.2056 12.4256L12.5604 12.9096H12.56ZM13.5 11.6C13.5 11.1612 13.2748 10.802 12.9016 10.6712C12.5368 10.5432 12.1224 10.6656 11.7924 10.9812L12.2076 11.4148C12.4176 11.2132 12.6032 11.202 12.7036 11.2372C12.7948 11.2692 12.9 11.3696 12.9 11.6H13.5ZM11.44 12.9096C11.5872 13.0176 11.7528 13.1524 12 13.1524V12.5524C11.9904 12.5524 11.984 12.5524 11.9624 12.5408C11.904 12.506 11.8479 12.4676 11.7944 12.4256L11.4396 12.9096H11.44ZM12.2056 12.4256C12.1521 12.4676 12.096 12.506 12.0376 12.5408C12.016 12.5524 12.0096 12.5524 12 12.5524V13.1524C12.2472 13.1524 12.4128 13.0176 12.56 12.9096L12.2056 12.4256Z" fill="#312C27"/>
<path opacity="0.5" d="M9.19995 14.4004H14.8" stroke="#312C27" stroke-width="1.5" stroke-linecap="round" stroke-linejoin="round"/>
</g>
<defs>
<clipPath id="clip0_12_40">
<rect width="9.6" height="9.6" fill="white" transform="translate(7.19995 7.2002)"/>
</clipPath>
</defs>
</svg>
