<svg width="17" height="16" viewBox="0 0 17 16" fill="none" xmlns="http://www.w3.org/2000/svg">
<path fill-rule="evenodd" clip-rule="evenodd" d="M3.36189 2.86201C3.62224 2.60166 4.04435 2.60166 4.3047 2.86201L8.49996 7.05727L12.6952 2.86201C12.9556 2.60166 13.3777 2.60166 13.638 2.86201C13.8984 3.12236 13.8984 3.54447 13.638 3.80482L9.44276 8.00008L13.638 12.1953C13.8984 12.4557 13.8984 12.8778 13.638 13.1382C13.3777 13.3985 12.9556 13.3985 12.6952 13.1382L8.49996 8.94289L4.3047 13.1382C4.04435 13.3985 3.62224 13.3985 3.36189 13.1382C3.10154 12.8778 3.10154 12.4557 3.36189 12.1953L7.55715 8.00008L3.36189 3.80482C3.10154 3.54447 3.10154 3.12236 3.36189 2.86201Z" fill="#9A9CA5"/>
</svg>
