<svg width="40" height="40" viewBox="0 0 40 40" fill="none" xmlns="http://www.w3.org/2000/svg">
<g clip-path="url(#clip0_4_383)">
<path d="M37.7913 22.0345C39.2377 19.7423 40 17.1036 40 14.3749C40 6.44859 33.5514 0 25.6251 0C22.9701 0 20.376 0.729766 18.1235 2.11039C17.7556 2.33586 17.6402 2.8168 17.8657 3.18469C18.0911 3.5525 18.572 3.66805 18.94 3.4425C20.9467 2.21258 23.2584 1.5625 25.6252 1.5625C32.6899 1.5625 38.4376 7.31008 38.4376 14.3749C38.4376 16.9372 37.6839 19.4099 36.2579 21.5258C36.0688 21.8064 36.0849 22.1692 36.2795 22.4298L37.1356 25.6248L33.6994 24.704C33.4743 24.6437 33.2341 24.6869 33.0442 24.822C30.8694 26.3695 28.3039 27.1874 25.6252 27.1874C24.0991 27.1874 22.6066 26.9209 21.187 26.3964C20.1877 22.7163 17.2841 19.8126 13.604 18.8134C13.0795 17.3938 12.8127 15.9015 12.8127 14.375C12.8127 11.982 13.4764 9.64836 14.732 7.62625C14.9596 7.25969 14.847 6.77805 14.4804 6.55039C14.114 6.32281 13.6322 6.43539 13.4045 6.80203C11.9951 9.07188 11.2502 11.6905 11.2502 14.375C11.2502 15.7802 11.4519 17.1601 11.8495 18.4906C11.4981 18.4559 11.1418 18.4377 10.7814 18.4377C4.83665 18.4377 0.000244141 23.2742 0.000244141 29.2189C0.000244141 31.3524 0.617119 33.4005 1.78759 35.1659L0.951494 38.2866C0.879229 38.5563 0.956338 38.8439 1.15368 39.0413C1.35103 39.2387 1.6386 39.3157 1.90829 39.2435L5.10634 38.3866C6.80946 39.4431 8.76384 40 10.7814 40C12.8349 40 14.8324 39.4203 16.5577 38.3236C16.9219 38.0921 17.0294 37.6093 16.798 37.2452C16.5665 36.881 16.0835 36.7735 15.7195 37.0049C14.245 37.9422 12.5376 38.4375 10.7814 38.4375C8.95329 38.4375 7.18634 37.9033 5.67173 36.8925C5.48478 36.7677 5.25313 36.7295 5.03587 36.7877L2.81087 37.3839L3.39009 35.2223C3.45048 34.9969 3.40696 34.7563 3.27142 34.5663C2.15353 32.9995 1.56267 31.1503 1.56267 29.2188C1.56267 24.1355 5.69821 20.0001 10.7813 20.0001C15.8645 20.0001 20.0001 24.1356 20.0001 29.2188C20.0001 30.3044 19.8134 31.3668 19.4453 32.3766C19.2975 32.782 19.5063 33.2304 19.9117 33.3782C20.317 33.5259 20.7656 33.3172 20.9133 32.9118C21.3441 31.73 21.5626 30.4875 21.5626 29.2188C21.5626 28.8584 21.5445 28.5023 21.5098 28.1509C22.8404 28.5484 24.2204 28.7498 25.6252 28.7498C28.506 28.7498 31.2705 27.9064 33.6444 26.3068L38.0383 27.4841C38.3081 27.5564 38.5956 27.4793 38.793 27.282C38.9903 27.0846 39.0674 26.797 38.9952 26.5273L37.7913 22.0345Z" fill="#7772F1"/>
<path d="M29.6521 16.0388H21.6948C21.2633 16.0388 20.9136 16.3886 20.9136 16.8201C20.9136 19.4447 23.0489 21.58 25.6735 21.58C28.2981 21.58 30.4334 19.4447 30.4334 16.8201C30.4333 16.3886 30.0835 16.0388 29.6521 16.0388ZM25.6735 20.0174C24.1799 20.0174 22.9222 18.9879 22.5726 17.6012H28.7744C28.4247 18.9879 27.167 20.0174 25.6735 20.0174Z" fill="#7772F1"/>
<path d="M31.7584 11.7046C31.532 11.3372 31.0507 11.2229 30.6835 11.4492L30.5816 11.5121C30.2146 11.7389 30.1008 12.2203 30.3277 12.5873C30.4755 12.8265 30.7312 12.9581 30.993 12.9581C31.1331 12.9581 31.275 12.9204 31.403 12.8413L31.503 12.7795C31.8704 12.5532 31.9848 12.0719 31.7584 11.7046Z" fill="#7772F1"/>
<path d="M21.0241 11.7045C20.7977 11.3372 20.3163 11.2229 19.9492 11.4492L19.8473 11.5121C19.4802 11.7389 19.3665 12.2203 19.5934 12.5873C19.7411 12.8265 19.9969 12.958 20.2587 12.958C20.3988 12.958 20.5406 12.9204 20.6686 12.8412L20.7687 12.7794C21.136 12.5531 21.2504 12.0719 21.0241 11.7045Z" fill="#7772F1"/>
<path d="M7.03684 28.667C6.89153 28.5217 6.68997 28.4381 6.4845 28.4381C6.27903 28.4381 6.07754 28.5217 5.93215 28.667C5.78684 28.8123 5.70325 29.0139 5.70325 29.2194C5.70325 29.4248 5.78684 29.6264 5.93215 29.7717C6.07747 29.917 6.27903 30.0006 6.4845 30.0006C6.68997 30.0006 6.89153 29.917 7.03684 29.7717C7.18215 29.6264 7.26575 29.4248 7.26575 29.2194C7.26575 29.0139 7.18215 28.8123 7.03684 28.667Z" fill="#7772F1"/>
<path d="M11.3337 28.667C11.1884 28.5217 10.9868 28.4381 10.7814 28.4381C10.5759 28.4381 10.3744 28.5217 10.229 28.667C10.0837 28.8123 10.0001 29.0139 10.0001 29.2194C10.0001 29.4248 10.0837 29.6264 10.229 29.7717C10.3743 29.917 10.5759 30.0006 10.7814 30.0006C10.9868 30.0006 11.1884 29.917 11.3337 29.7717C11.479 29.6264 11.5626 29.4248 11.5626 29.2194C11.5626 29.0139 11.479 28.8123 11.3337 28.667Z" fill="#7772F1"/>
<path d="M15.6305 28.667C15.4852 28.5217 15.2836 28.4381 15.0781 28.4381C14.8727 28.4381 14.6712 28.5217 14.5258 28.667C14.3805 28.8123 14.2969 29.0139 14.2969 29.2194C14.2969 29.4248 14.3805 29.6264 14.5258 29.7717C14.6711 29.917 14.8727 30.0006 15.0781 30.0006C15.2836 30.0006 15.4852 29.917 15.6305 29.7717C15.7758 29.6264 15.8594 29.4248 15.8594 29.2194C15.8594 29.0139 15.7758 28.8123 15.6305 28.667Z" fill="#7772F1"/>
<path d="M19.1275 34.9324C18.9822 34.7871 18.7807 34.7035 18.5752 34.7035C18.3689 34.7035 18.1682 34.7871 18.0229 34.9324C17.8775 35.0777 17.7939 35.2793 17.7939 35.4847C17.7939 35.6902 17.8775 35.8918 18.0229 36.0371C18.1682 36.1824 18.3689 36.266 18.5752 36.266C18.7807 36.266 18.9822 36.1824 19.1275 36.0371C19.2729 35.8918 19.3564 35.6902 19.3564 35.4847C19.3564 35.2793 19.2729 35.0777 19.1275 34.9324Z" fill="#7772F1"/>
<path d="M16.5917 4.18467C16.4463 4.03936 16.2448 3.95654 16.0393 3.95654C15.8331 3.95654 15.6323 4.03936 15.487 4.18467C15.3409 4.33076 15.2581 4.53154 15.2581 4.73779C15.2581 4.94326 15.3409 5.14482 15.487 5.29014C15.6323 5.43545 15.833 5.51826 16.0393 5.51826C16.2448 5.51826 16.4463 5.43545 16.5917 5.29014C16.737 5.14482 16.8206 4.94326 16.8206 4.73779C16.8206 4.53154 16.737 4.33076 16.5917 4.18467Z" fill="#7772F1"/>
</g>
<defs>
<clipPath id="clip0_4_383">
<rect width="40" height="40" fill="white"/>
</clipPath>
</defs>
</svg>
