<svg width="40" height="40" viewBox="0 0 40 40" fill="none" xmlns="http://www.w3.org/2000/svg">
<g clip-path="url(#clip0_4_80)">
<path d="M13.8655 25.8448C13.7203 25.6995 13.5187 25.6167 13.3132 25.6167C13.1077 25.6167 12.9062 25.6996 12.7609 25.8448C12.6156 25.9909 12.532 26.1925 12.532 26.3972C12.532 26.6034 12.6155 26.8042 12.7609 26.9495C12.9062 27.0955 13.1077 27.1784 13.3132 27.1784C13.5187 27.1784 13.7203 27.0955 13.8655 26.9495C14.0108 26.8042 14.0945 26.6033 14.0945 26.3972C14.0945 26.1925 14.0109 25.9909 13.8655 25.8448Z" fill="#7772F1"/>
<path d="M40 26.555C40 24.9773 38.8913 23.6544 37.4123 23.3222C37.7625 22.7969 37.9671 22.1666 37.9671 21.4893C37.9671 19.662 36.4805 18.1753 34.6531 18.1753H25.9594L27.0966 14.799C27.5556 13.4364 27.4459 11.982 26.7879 10.7036C26.1298 9.42533 25.0098 8.49096 23.6344 8.07275L22.2637 7.65611C21.8653 7.53494 21.4431 7.74697 21.3017 8.13775L19.1479 14.0904C18.5366 15.7799 17.331 17.1834 15.7533 18.0424L13.6016 19.2142C13.1388 18.5848 12.3937 18.1754 11.5544 18.1754H0.78125C0.349844 18.1754 0 18.5253 0 18.9567V39.2185C0 39.6499 0.349844 39.9998 0.78125 39.9998H11.5544C12.489 39.9998 13.3067 39.492 13.7478 38.7383L14.8505 39.1708C16.2535 39.721 17.7289 39.9999 19.2357 39.9999H32.8869C34.7142 39.9999 36.2009 38.5132 36.2009 36.6859C36.2009 36.0031 35.9932 35.3681 35.638 34.8403C37.0889 34.4877 38.1697 33.1782 38.1697 31.6204C38.1697 30.9242 37.9534 30.2778 37.5852 29.7439C38.9768 29.351 40 28.0706 40 26.555ZM36.686 28.3064H34.8557H31.2677H28.6505C28.2191 28.3064 27.8692 28.6563 27.8692 29.0877C27.8692 29.5191 28.2191 29.8689 28.6505 29.8689H31.2677H34.8557C35.8215 29.8689 36.6072 30.6546 36.6072 31.6204C36.6072 32.5862 35.8215 33.3719 34.8557 33.3719H32.8869H28.9166H28.6505C28.2191 33.3719 27.8693 33.7217 27.8693 34.1531C27.8693 34.5845 28.2191 34.9344 28.6505 34.9344H28.9166H32.8869C33.8527 34.9344 34.6384 35.7201 34.6384 36.6859C34.6384 37.6517 33.8527 38.4374 32.8869 38.4374H19.2357C17.9249 38.4374 16.6415 38.1947 15.421 37.7161L14.0945 37.1959V29.5311C14.0945 29.0997 13.7447 28.7499 13.3133 28.7499C12.8819 28.7499 12.532 29.0997 12.532 29.5311V37.4595C12.532 37.9986 12.0935 38.4372 11.5544 38.4372H1.5625V19.7378H11.5544C12.0934 19.7378 12.532 20.1763 12.532 20.7155V23.3682C12.532 23.7996 12.8819 24.1495 13.3133 24.1495C13.7447 24.1495 14.0945 23.7996 14.0945 23.3682V20.7249L16.5005 19.4146C18.4139 18.3728 19.8759 16.6708 20.6172 14.622L22.5187 9.36666L23.1798 9.5676C24.1477 9.86189 24.9357 10.5192 25.3987 11.4187C25.8617 12.3181 25.9388 13.3414 25.6159 14.3001L24.1316 18.707C24.0513 18.9455 24.0907 19.2079 24.2373 19.4122C24.3841 19.6165 24.6203 19.7377 24.8719 19.7377H34.6531C35.6189 19.7377 36.4046 20.5234 36.4046 21.4892C36.4046 22.4549 35.6189 23.2406 34.6531 23.2406H28.6505C28.2191 23.2406 27.8692 23.5905 27.8692 24.0219C27.8692 24.4533 28.2191 24.8031 28.6505 24.8031H31.2632C31.2648 24.8031 31.2662 24.8034 31.2677 24.8034H36.686C37.6518 24.8034 38.4375 25.5891 38.4375 26.5549C38.4375 27.5208 37.6518 28.3064 36.686 28.3064Z" fill="#7772F1"/>
<path d="M8.52918 32.4648C7.32254 32.4648 6.34082 33.4465 6.34082 34.6531C6.34082 35.8598 7.32246 36.8415 8.52918 36.8415C9.7359 36.8415 10.7175 35.8598 10.7175 34.6531C10.7175 33.4466 9.73582 32.4648 8.52918 32.4648ZM8.52918 35.279C8.1841 35.279 7.90332 34.9982 7.90332 34.6531C7.90332 34.308 8.1841 34.0273 8.52918 34.0273C8.87426 34.0273 9.15504 34.308 9.15504 34.6531C9.15504 34.9982 8.87426 35.279 8.52918 35.279Z" fill="#7772F1"/>
<path d="M23.8961 0.228906C23.7507 0.0835938 23.5493 0 23.3438 0C23.1383 0 22.9367 0.0835156 22.7915 0.228906C22.6462 0.374219 22.5625 0.575781 22.5625 0.78125C22.5625 0.986719 22.6461 1.18828 22.7915 1.33352C22.9367 1.47891 23.1383 1.5625 23.3438 1.5625C23.5493 1.5625 23.7508 1.47891 23.8961 1.33352C24.0414 1.18828 24.125 0.986719 24.125 0.78125C24.125 0.575781 24.0415 0.374219 23.8961 0.228906Z" fill="#7772F1"/>
<path d="M23.3438 2.91699C22.9123 2.91699 22.5625 3.26684 22.5625 3.69824V5.59934C22.5625 6.03074 22.9123 6.38059 23.3438 6.38059C23.7752 6.38059 24.125 6.03074 24.125 5.59934V3.69824C24.125 3.26684 23.7752 2.91699 23.3438 2.91699Z" fill="#7772F1"/>
<path d="M33.5989 10.2539H28.7812C28.3498 10.2539 28 10.6037 28 11.0352C28 11.4666 28.3498 11.8164 28.7812 11.8164H33.5989C34.0303 11.8164 34.3802 11.4666 34.3802 11.0352C34.3802 10.6038 34.0303 10.2539 33.5989 10.2539Z" fill="#7772F1"/>
<path d="M17.9086 10.2539H13.0908C12.6594 10.2539 12.3096 10.6038 12.3096 11.0352C12.3096 11.4666 12.6593 11.8164 13.0908 11.8164H17.9086C18.34 11.8164 18.6898 11.4666 18.6898 11.0352C18.6898 10.6038 18.34 10.2539 17.9086 10.2539Z" fill="#7772F1"/>
<path d="M19.4794 6.06488L17.2048 3.79027C16.8997 3.48527 16.4051 3.48527 16.0999 3.79027C15.7948 4.09535 15.7948 4.59004 16.0999 4.89519L18.3746 7.1698C18.5272 7.3223 18.7271 7.39863 18.927 7.39863C19.1269 7.39863 19.3269 7.3223 19.4794 7.1698C19.7845 6.86472 19.7845 6.37004 19.4794 6.06488Z" fill="#7772F1"/>
<path d="M30.5888 3.79174C30.2837 3.48674 29.7891 3.48674 29.4839 3.79174L27.2093 6.06635C26.9042 6.37142 26.9042 6.86611 27.2093 7.17127C27.3619 7.32377 27.5618 7.4001 27.7618 7.4001C27.9618 7.4001 28.1616 7.32377 28.3142 7.17127L30.5888 4.89666C30.8939 4.59158 30.8939 4.09689 30.5888 3.79174Z" fill="#7772F1"/>
</g>
<defs>
<clipPath id="clip0_4_80">
<rect width="40" height="40" fill="white"/>
</clipPath>
</defs>
</svg>
