<svg width="373" height="506" viewBox="0 0 373 506" fill="none" xmlns="http://www.w3.org/2000/svg">
<path d="M316.083 155.645C316.08 161.204 317.699 166.642 320.74 171.292C323.781 175.941 328.113 179.598 333.201 181.813C338.289 184.028 343.913 184.704 349.38 183.759C354.847 182.813 359.919 180.287 363.972 176.491C368.024 172.695 370.882 167.795 372.192 162.393C373.501 156.991 373.207 151.324 371.344 146.087C369.482 140.851 366.132 136.275 361.708 132.921C357.283 129.567 351.977 127.582 346.442 127.211V155.645H316.083Z" fill="#E5E8ED"/>
<path d="M313.001 152.335H343.359V123.87C342.748 123.821 342.1 123.803 341.464 123.803C337.725 123.803 334.023 124.541 330.569 125.975C327.115 127.409 323.976 129.511 321.333 132.16C318.69 134.81 316.594 137.955 315.164 141.417C313.735 144.878 312.999 148.588 313.001 152.335Z" fill="#00F0B5"/>
<path d="M242.058 28.5659L231.591 21.9487L290.089 15.4753L266.48 47.2668L257.925 41.177L245.165 46.3557L242.058 28.5659ZM245.26 40.6016L245.642 32.45L245.547 32.402L274.7 21.0856L244.734 30.2442L243.301 29.3332L245.26 40.6016ZM234.841 22.7159L244.878 29.0454L283.112 17.3454L234.841 22.7159ZM287.317 17.3454L247.841 32.6418L266.241 45.7803L287.317 17.3454ZM246.742 33.2172L246.168 44.7254L256.874 40.4098L246.742 33.2172Z" fill="#9A9CA5"/>
<path d="M216.526 69.1238C219.133 69.1238 221.55 68.6014 223.541 67.224C226.243 65.3717 227.712 62.807 228.328 60.0998C230.319 60.4798 232.5 60.3373 234.87 59.3399C241.79 56.3953 245.06 48.7961 245.203 48.5112L244.207 48.0837C244.16 48.1787 240.984 55.5879 234.49 58.3425C232.357 59.2449 230.367 59.3874 228.565 59.055C229.039 55.7778 228.281 52.5007 226.954 50.221C225.485 47.7987 223.446 46.8488 221.598 47.7987C219.607 48.8436 219.086 51.2183 220.365 53.9255C221.503 56.3478 224.015 58.865 227.333 59.8624C226.764 62.3321 225.437 64.6593 223.02 66.3216C214.44 72.211 196.144 61.0022 195.955 60.9073L195.386 61.8097C195.86 62.1896 207.236 69.1238 216.526 69.1238ZM222.972 48.5112C224.442 48.5112 225.579 50.1735 225.911 50.7909C227.144 52.8332 227.807 55.8253 227.38 58.77C224.442 57.8676 222.214 55.5879 221.219 53.4506C220.413 51.7883 220.223 49.651 221.977 48.7486C222.356 48.5586 222.688 48.5112 222.972 48.5112Z" fill="#00F0B5"/>
<path d="M222.676 493.769V351.173L183.886 314.695L179.652 505H231.502L222.676 493.769Z" fill="#D7DADD"/>
<path d="M212.719 222.019L148.134 217.586L136.391 300.501V505H196.378L190.035 493.611L212.719 222.019Z" fill="#E5E8ED"/>
<path d="M182.589 372.994C196.17 370.843 209.57 367.672 222.676 363.509L183.22 344.632L182.589 372.994Z" fill="#1E212C"/>
<path d="M136.392 322.229V375.072C158.835 377.356 183.275 373.431 200.399 369.547L201.739 353.493L136.392 322.229Z" fill="#1E212C"/>
<path d="M196.378 504.999L190.035 493.61L212.719 222.019" stroke="#1E212C" stroke-width="1.5" stroke-linecap="round" stroke-linejoin="round"/>
<path d="M138.629 159.355V223.376L229.141 245.667V174.365C229.141 149.083 211.915 127.067 187.413 121.033H187.413C175.662 118.139 163.236 120.818 153.714 128.298C144.191 135.779 138.629 147.23 138.629 159.355V159.355Z" fill="#00F0B5"/>
<path d="M156.554 86.1028V96.3178C156.554 104.216 161.935 111.094 169.59 112.98L185.813 116.975V77.0366L172.324 73.7145C168.525 72.779 164.509 73.6451 161.43 76.0633C158.352 78.4815 156.554 82.1834 156.554 86.1028V86.1028Z" fill="#E5E8ED"/>
<path d="M156.554 96.3179C156.554 104.216 161.935 111.095 169.59 112.98L185.813 116.975" stroke="#1E212C" stroke-width="1.5" stroke-linecap="round" stroke-linejoin="round"/>
<path d="M173.083 94.2914C173.515 94.2914 173.865 93.9405 173.865 93.5075C173.865 93.0746 173.515 92.7236 173.083 92.7236C172.651 92.7236 172.301 93.0746 172.301 93.5075C172.301 93.9405 172.651 94.2914 173.083 94.2914Z" fill="#1E212C"/>
<path d="M161.067 94.2914C161.5 94.2914 161.85 93.9405 161.85 93.5075C161.85 93.0746 161.5 92.7236 161.067 92.7236C160.635 92.7236 160.285 93.0746 160.285 93.5075C160.285 93.9405 160.635 94.2914 161.067 94.2914Z" fill="#1E212C"/>
<path d="M164.591 98.1834V86.1025H158.551" stroke="#1E212C" stroke-width="1.5" stroke-linecap="round" stroke-linejoin="round"/>
<path d="M174.556 86.1028H168.516" stroke="#1E212C" stroke-width="1.5" stroke-linecap="round" stroke-linejoin="round"/>
<path d="M183.886 92.2927V96.4879C186.144 96.4879 187.975 94.6534 187.975 92.3904C187.975 92.2647 187.969 92.1404 187.958 92.0175C187.729 89.4731 183.886 89.738 183.886 92.2927Z" fill="#E5E8ED"/>
<path d="M183.886 96.4881C186.144 96.4881 187.975 94.6536 187.975 92.3906" stroke="#1E212C" stroke-width="1.5" stroke-linecap="round" stroke-linejoin="round"/>
<path d="M167.894 99.5947C168.401 100.104 169.09 100.389 169.808 100.389C170.526 100.389 171.215 100.104 171.723 99.5947" stroke="#1E212C" stroke-width="1.5" stroke-linecap="round" stroke-linejoin="round"/>
<path d="M164.59 98.1934L167.232 98.844" stroke="#1E212C" stroke-width="1.5" stroke-linecap="round" stroke-linejoin="round"/>
<path d="M156.554 82.745C156.554 82.745 165.116 81.6485 167.233 77.4944C167.233 77.4944 169.915 81.8239 173.864 81.4554C173.864 81.4554 176.159 86.1533 180.204 85.3243C180.204 85.3243 179.891 89.7349 183.886 90.667" stroke="#1E212C" stroke-width="1.5" stroke-linecap="round" stroke-linejoin="round"/>
<path d="M156.556 90.6671C156.556 90.6671 139.388 80.5343 155.384 69.6645C171.38 58.7948 182.044 68.9276 182.044 68.9276C182.044 68.9276 192.341 71.8199 192.525 77.6509C192.525 77.6509 197.121 82.7451 195.65 87.5351C195.65 87.5351 201.403 102.642 185.932 107.432" stroke="#1E212C" stroke-width="1.5" stroke-linecap="round" stroke-linejoin="round"/>
<path d="M185.93 109.643C187.977 109.399 189.929 108.638 191.603 107.433" stroke="#00F0B5" stroke-width="1.5" stroke-linecap="round" stroke-linejoin="round"/>
<path d="M185.813 113.236V126.755C185.763 131.819 189.391 136.169 194.372 137.019C196.247 137.308 198.113 137.028 199.602 135.62C204.474 131.014 202.084 120.053 197.855 117.381C198.053 114.294 196.336 111.403 193.534 110.104" stroke="#1E212C" stroke-width="1.5" stroke-linecap="round" stroke-linejoin="round"/>
<path d="M138.63 223.376L67.1284 345.092C67.1284 345.092 153.972 377.504 229.142 363.509V231.236" fill="#00F0B5"/>
<path d="M67.1279 345.094C67.1279 345.094 153.971 377.506 229.141 363.51" stroke="#1E212C" stroke-width="1.5" stroke-linecap="round" stroke-linejoin="round"/>
<path d="M212.719 135.167C212.719 135.167 238.719 157.774 242.028 187.067C242.028 187.067 246.945 110.748 248.6 107.432C250.255 104.116 253.012 119.873 253.012 119.873C253.012 119.873 273.421 126.777 262.941 141.7C262.941 141.7 291.316 230.131 229.14 238.974" stroke="#1E212C" stroke-width="1.5" stroke-linecap="round" stroke-linejoin="round"/>
<path d="M156.554 126.265C156.554 126.265 134.79 137.278 117.507 177.073C117.507 177.073 88.8241 130.581 68.5992 123.613C48.3742 116.644 44.3293 115.833 43.5938 116.975C42.8583 118.118 53.8901 126.224 53.8901 126.224C53.8901 126.224 48.3742 143.446 65.2897 146.81C65.2897 146.81 67.8965 220.552 100.056 230.869C132.216 241.186 161.066 198.812 161.066 198.812" stroke="#1E212C" stroke-width="1.5" stroke-linecap="round" stroke-linejoin="round"/>
<path d="M295.606 281.859C293.896 281.859 292.211 281.437 290.703 280.63C289.194 279.822 287.907 278.654 286.957 277.23C286.006 275.805 285.421 274.167 285.253 272.461C285.085 270.756 285.34 269.035 285.995 267.452C286.649 265.868 287.683 264.471 289.005 263.384C290.328 262.296 291.897 261.553 293.575 261.219C295.252 260.884 296.986 260.97 298.623 261.468C300.259 261.966 301.748 262.86 302.957 264.072C304.411 265.53 305.401 267.386 305.802 269.407C306.203 271.428 305.997 273.522 305.21 275.426C304.423 277.329 303.091 278.956 301.381 280.101C299.672 281.247 297.662 281.858 295.606 281.859ZM295.606 264.124C293.919 264.123 292.284 264.709 290.98 265.781C289.676 266.853 288.783 268.345 288.454 270.003C288.124 271.66 288.379 273.381 289.174 274.872C289.97 276.363 291.256 277.531 292.815 278.177C294.373 278.824 296.108 278.909 297.722 278.418C299.336 277.926 300.73 276.889 301.666 275.484C302.603 274.078 303.024 272.39 302.857 270.708C302.691 269.026 301.948 267.454 300.754 266.26C300.08 265.579 299.278 265.04 298.394 264.673C297.51 264.306 296.563 264.12 295.606 264.124Z" fill="#D7DADD"/>
<path d="M311.555 289.483C311.345 289.485 311.137 289.445 310.944 289.363C310.751 289.281 310.577 289.161 310.432 289.008L300.754 278.836C300.596 278.694 300.469 278.52 300.381 278.326C300.293 278.133 300.246 277.923 300.242 277.71C300.239 277.497 300.28 277.286 300.361 277.089C300.443 276.893 300.565 276.715 300.718 276.568C300.871 276.421 301.054 276.307 301.253 276.233C301.452 276.159 301.665 276.128 301.877 276.14C302.089 276.153 302.296 276.209 302.486 276.305C302.675 276.402 302.843 276.536 302.978 276.7L312.667 286.873C312.878 287.09 313.021 287.365 313.076 287.664C313.132 287.962 313.098 288.27 312.979 288.549C312.86 288.828 312.661 289.066 312.408 289.232C312.154 289.398 311.858 289.486 311.555 289.483Z" fill="#D7DADD"/>
<path d="M119.98 63.115L36.5501 76.8134C36.4154 76.8355 36.2774 76.8031 36.1665 76.7232C36.0556 76.6434 35.9809 76.5227 35.9588 76.3877L25.8176 14.3743C25.7955 14.2393 25.8279 14.101 25.9076 13.9899C25.9872 13.8788 26.1077 13.8039 26.2424 13.7818L109.672 0.0834262C109.806 0.0640433 109.943 0.0975584 110.053 0.176914C110.164 0.25627 110.239 0.375302 110.263 0.509069L120.405 62.5225C120.427 62.6575 120.394 62.7958 120.315 62.9069C120.235 63.018 120.115 63.0928 119.98 63.115ZM36.8917 75.7118L119.305 62.1803L109.331 1.18496L26.9169 14.7165L36.8917 75.7118Z" fill="#787A80"/>
<path d="M43.4842 63.1401L43.3826 63.1568C36.0591 64.1188 32.9203 57.4937 32.8883 57.4258C32.8594 57.3619 32.8432 57.2929 32.8409 57.2228C32.8386 57.1527 32.85 57.0828 32.8747 57.0171C32.8993 56.9514 32.9366 56.8912 32.9844 56.84C33.0322 56.7887 33.0897 56.7474 33.1534 56.7184C33.2172 56.6894 33.286 56.6733 33.356 56.6709C33.426 56.6686 33.4958 56.6801 33.5613 56.7047C33.6269 56.7294 33.687 56.7668 33.7381 56.8147C33.7893 56.8626 33.8305 56.9202 33.8594 56.9841C33.9738 57.2371 36.7291 62.9843 43.2873 62.127L43.3177 62.122C46.5285 61.5948 47.3842 52.5994 48.122 44.606C48.8554 36.331 49.6605 28.4938 52.8362 27.1779C53.4606 26.8877 54.1377 26.7289 54.8257 26.7112C55.5137 26.6936 56.198 26.8174 56.8363 27.0752C60.0876 28.4545 62.0578 33.4838 64.3948 39.2891C65.6233 42.5998 67.0642 45.8274 68.7085 48.9517C71.279 53.5688 75.0892 56.0691 78.2198 55.1787C82.0973 54.0716 84.1789 48.0425 83.7616 39.047C82.5823 13.397 90.849 9.20652 94.4324 8.59725L94.5645 8.57556C103.547 7.10078 108.981 11.1744 113.932 23.0742C113.958 23.1386 113.971 23.2075 113.971 23.277C113.971 23.3465 113.957 23.4153 113.93 23.4794C113.876 23.6088 113.773 23.7114 113.643 23.7646C113.513 23.8178 113.368 23.8172 113.239 23.7629C113.109 23.7086 113.007 23.6052 112.954 23.4753C108.163 11.9778 103.215 8.20065 94.7005 9.59868L94.5785 9.6187C87.6184 10.7615 83.949 21.8185 84.7773 39.0057C85.2267 48.6441 82.933 54.9066 78.4862 56.1699C74.9101 57.2066 70.6062 54.4947 67.7999 49.4564C66.1395 46.3066 64.6807 43.0542 63.4322 39.719C61.3022 34.3501 59.2949 29.2851 56.424 28.0629C55.9111 27.8579 55.3614 27.7617 54.8096 27.7803C54.2577 27.799 53.7157 27.932 53.2177 28.1711C50.5996 29.2596 49.8273 37.4887 49.1457 44.7411C48.2287 53.872 47.4571 62.4878 43.4842 63.1401Z" fill="#787A80"/>
<path d="M108.083 39.1628L96.4284 41.0763C96.2937 41.0984 96.1557 41.066 96.0448 40.9862C95.9339 40.9064 95.8592 40.7857 95.8372 40.6507C95.8151 40.5156 95.8474 40.3774 95.9271 40.2663C96.0067 40.1552 96.1272 40.0803 96.2619 40.0582L107.916 38.1446C108.051 38.1225 108.189 38.1549 108.3 38.2348C108.411 38.3146 108.485 38.4353 108.508 38.5703C108.53 38.7053 108.497 38.8436 108.418 38.9547C108.338 39.0658 108.218 39.1406 108.083 39.1628Z" fill="#D7DADD"/>
<path d="M108.868 43.9782L97.2136 45.8917C97.0789 45.9139 96.9408 45.8814 96.83 45.8016C96.7191 45.7218 96.6444 45.6011 96.6223 45.4661C96.6002 45.3311 96.6326 45.1928 96.7122 45.0817C96.7919 44.9706 96.9124 44.8957 97.0471 44.8736L108.701 42.9601C108.836 42.938 108.974 42.9704 109.085 43.0502C109.196 43.13 109.271 43.2507 109.293 43.3857C109.315 43.5207 109.282 43.659 109.203 43.7701C109.123 43.8812 109.003 43.9561 108.868 43.9782Z" fill="#D7DADD"/>
<path d="M103.821 49.7307L97.9987 50.6867C97.864 50.7088 97.726 50.6764 97.6151 50.5965C97.5042 50.5167 97.4295 50.396 97.4075 50.261C97.3854 50.126 97.4177 49.9877 97.4974 49.8766C97.577 49.7655 97.6975 49.6907 97.8323 49.6685L103.654 48.7126C103.789 48.6905 103.927 48.7229 104.038 48.8027C104.149 48.8826 104.224 49.0032 104.246 49.1382C104.268 49.2733 104.235 49.4115 104.156 49.5226C104.076 49.6337 103.956 49.7086 103.821 49.7307Z" fill="#D7DADD"/>
<path d="M47.4812 17.3932L35.8269 19.3068C35.6921 19.3289 35.5541 19.2965 35.4433 19.2166C35.3324 19.1368 35.2577 19.0161 35.2356 18.8811C35.2135 18.7461 35.2459 18.6078 35.3255 18.4967C35.4052 18.3856 35.5256 18.3108 35.6604 18.2887L47.3147 16.3751C47.4495 16.353 47.5875 16.3854 47.6983 16.4652C47.8092 16.5451 47.8839 16.6657 47.906 16.8008C47.9254 16.9354 47.8919 17.0723 47.8127 17.1827C47.7335 17.2932 47.6147 17.3686 47.4812 17.3932Z" fill="#D7DADD"/>
<path d="M48.2781 22.2604L36.6237 24.174C36.489 24.1961 36.351 24.1637 36.2401 24.0838C36.1293 24.004 36.0545 23.8833 36.0325 23.7483C36.0104 23.6133 36.0427 23.475 36.1224 23.3639C36.2021 23.2528 36.3225 23.178 36.4573 23.1558L48.1116 21.2423C48.246 21.2229 48.3826 21.2564 48.4928 21.3358C48.603 21.4151 48.6783 21.5342 48.7029 21.6679C48.725 21.803 48.6926 21.9412 48.6129 22.0523C48.5333 22.1634 48.4128 22.2383 48.2781 22.2604Z" fill="#D7DADD"/>
<path d="M43.2271 27.9924L37.405 28.9484C37.2703 28.9705 37.1323 28.9381 37.0214 28.8582C36.9105 28.7784 36.8358 28.6577 36.8137 28.5227C36.7916 28.3877 36.824 28.2494 36.9037 28.1383C36.9833 28.0272 37.1038 27.9524 37.2385 27.9303L43.0606 26.9743C43.1954 26.9522 43.3333 26.9846 43.4442 27.0644C43.5551 27.1443 43.6298 27.265 43.6519 27.4C43.674 27.535 43.6416 27.6732 43.562 27.7843C43.4823 27.8955 43.3618 27.9703 43.2271 27.9924Z" fill="#D7DADD"/>
<path d="M45.8706 271.011L-0.00388502 254.77L11.9804 220.782L12.8127 221.077L1.12291 254.229L46.1651 270.175L45.8706 271.011Z" fill="#00F0B5"/>
<path d="M19.0738 242.376L13.6807 240.467L7.97281 256.654L13.3659 258.563L19.0738 242.376Z" fill="#00F0B5"/>
<path d="M32.5656 239.213L27.1725 237.304L18.9758 260.549L24.3689 262.459L32.5656 239.213Z" fill="#00F0B5"/>
<path d="M46.4125 238.46L41.0195 236.551L31.0497 264.825L36.4428 266.734L46.4125 238.46Z" fill="#00F0B5"/>
</svg>
