<svg width="24" height="24" viewBox="0 0 24 24" fill="none" xmlns="http://www.w3.org/2000/svg">
<g opacity="0.6">
<path d="M21.9804 7.88005C21.9335 6.81738 21.7617 6.0868 21.5155 5.45374C21.2616 4.78176 20.8709 4.18014 20.359 3.68002C19.8589 3.1721 19.2533 2.77743 18.5891 2.52745C17.9524 2.28127 17.2256 2.10943 16.1629 2.06257C15.0923 2.01175 14.7524 2 12.0371 2C9.32169 2 8.98182 2.01175 7.91517 2.05861C6.8525 2.10546 6.12192 2.27746 5.48901 2.52348C4.81688 2.77743 4.21527 3.16814 3.71514 3.68002C3.20723 4.18014 2.81271 4.78573 2.56257 5.44992C2.3164 6.0868 2.14455 6.81341 2.0977 7.87609C2.04688 8.9467 2.03513 9.28658 2.03513 12.002C2.03513 14.7173 2.04688 15.0572 2.09373 16.1239C2.14058 17.1865 2.31258 17.9171 2.55876 18.5502C2.81271 19.2221 3.20723 19.8238 3.71514 20.3239C4.21527 20.8318 4.82085 21.2265 5.48504 21.4765C6.12192 21.7226 6.84853 21.8945 7.91136 21.9413C8.97785 21.9883 9.31788 21.9999 12.0332 21.9999C14.7486 21.9999 15.0885 21.9883 16.1551 21.9413C17.2178 21.8945 17.9484 21.7226 18.5813 21.4765C19.9254 20.9568 20.9881 19.8941 21.5077 18.5502C21.7538 17.9133 21.9258 17.1865 21.9726 16.1239C22.0195 15.0572 22.0312 14.7173 22.0312 12.002C22.0312 9.28658 22.0273 8.9467 21.9804 7.88005ZM20.1794 16.0457C20.1363 17.0225 19.9723 17.5499 19.8355 17.9015C19.4994 18.7728 18.8079 19.4643 17.9366 19.8004C17.585 19.9372 17.0538 20.1012 16.0808 20.1441C15.0259 20.1911 14.7095 20.2027 12.041 20.2027C9.37252 20.2027 9.05217 20.1911 8.0011 20.1441C7.02434 20.1012 6.4969 19.9372 6.14527 19.8004C5.71168 19.6402 5.31701 19.3862 4.99667 19.0541C4.66457 18.7298 4.41062 18.3391 4.25037 17.9055C4.11362 17.5539 3.94956 17.0225 3.90667 16.0497C3.85967 14.9948 3.84807 14.6783 3.84807 12.0097C3.84807 9.34122 3.85967 9.02087 3.90667 7.96995C3.94956 6.99319 4.11362 6.46575 4.25037 6.11412C4.41062 5.68038 4.66457 5.28586 5.00064 4.96536C5.3248 4.63327 5.7155 4.37931 6.14923 4.21921C6.50087 4.08247 7.03228 3.9184 8.00506 3.87537C9.05996 3.82851 9.37648 3.81676 12.0448 3.81676C14.7173 3.81676 15.0337 3.82851 16.0848 3.87537C17.0615 3.9184 17.589 4.08247 17.9406 4.21921C18.3742 4.37931 18.7689 4.63327 19.0892 4.96536C19.4213 5.28967 19.6753 5.68038 19.8355 6.11412C19.9723 6.46575 20.1363 6.99701 20.1794 7.96995C20.2262 9.02484 20.238 9.34122 20.238 12.0097C20.238 14.6783 20.2262 14.9908 20.1794 16.0457Z" fill="white"/>
<path d="M12.0371 6.86423C9.20066 6.86423 6.89934 9.1654 6.89934 12.002C6.89934 14.8385 9.20066 17.1397 12.0371 17.1397C14.8736 17.1397 17.1748 14.8385 17.1748 12.002C17.1748 9.1654 14.8736 6.86423 12.0371 6.86423ZM12.0371 15.3347C10.1969 15.3347 8.70435 13.8422 8.70435 12.002C8.70435 10.1617 10.1969 8.66924 12.0371 8.66924C13.8773 8.66924 15.3698 10.1617 15.3698 12.002C15.3698 13.8422 13.8773 15.3347 12.0371 15.3347Z" fill="white"/>
<path d="M18.5775 6.6611C18.5775 7.32346 18.0405 7.86053 17.3779 7.86053C16.7156 7.86053 16.1785 7.32346 16.1785 6.6611C16.1785 5.99858 16.7156 5.46167 17.3779 5.46167C18.0405 5.46167 18.5775 5.99858 18.5775 6.6611Z" fill="white"/>
</g>
</svg>
