<svg width="14" height="15" viewBox="0 0 14 15" fill="none" xmlns="http://www.w3.org/2000/svg">
<path fill-rule="evenodd" clip-rule="evenodd" d="M7.0001 1.66683C5.71144 1.66683 4.66677 2.7115 4.66677 4.00016C4.66677 5.28883 5.71144 6.3335 7.0001 6.3335C8.28877 6.3335 9.33344 5.28883 9.33344 4.00016C9.33344 2.7115 8.28877 1.66683 7.0001 1.66683ZM3.33344 4.00016C3.33344 1.97512 4.97506 0.333496 7.0001 0.333496C9.02515 0.333496 10.6668 1.97512 10.6668 4.00016C10.6668 6.02521 9.02515 7.66683 7.0001 7.66683C4.97506 7.66683 3.33344 6.02521 3.33344 4.00016Z" fill="#787A80"/>
<path fill-rule="evenodd" clip-rule="evenodd" d="M3.06948 9.66683C2.60726 9.66683 2.24599 9.89189 2.09934 10.2152C1.89637 10.6628 1.71257 11.1956 1.6692 11.7009C1.64981 11.9268 1.744 12.0933 1.87379 12.1739C2.55989 12.6002 4.1497 13.3335 7.0001 13.3335C9.85051 13.3335 11.4403 12.6002 12.1264 12.1739C12.2562 12.0933 12.3504 11.9268 12.331 11.7009C12.2876 11.1956 12.1038 10.6628 11.9009 10.2152C11.7542 9.89189 11.3929 9.66683 10.9307 9.66683H3.06948ZM0.885056 9.66453C1.29035 8.77088 2.19538 8.3335 3.06948 8.3335H10.9307C11.8048 8.3335 12.7099 8.77088 13.1152 9.66453C13.3479 10.1778 13.5977 10.8678 13.6595 11.5869C13.7157 12.2417 13.4435 12.9254 12.83 13.3065C11.9276 13.8671 10.0932 14.6668 7.0001 14.6668C3.90704 14.6668 2.07257 13.8671 1.17021 13.3065C0.556706 12.9254 0.284546 12.2417 0.340749 11.5869C0.402467 10.8678 0.652266 10.1778 0.885056 9.66453Z" fill="#787A80"/>
</svg>
